<svg width="36" height="50" viewBox="0 0 36 50" fill="none" xmlns="http://www.w3.org/2000/svg">
<path d="M32.8026 8.5622C29.7682 3.32548 24.3783 0.12616 18.3847 0.00389404C18.1288 -0.00137939 17.8713 -0.00137939 17.6153 0.00389404C11.6218 0.12616 6.23192 3.32548 3.19735 8.5622C0.0955966 13.9149 0.0107335 20.3446 2.9703 25.7617L15.369 48.4557C15.3746 48.4658 15.3802 48.4759 15.3859 48.4858C15.9314 49.434 16.9087 50 18.0002 50C19.0916 50 20.0688 49.4339 20.6142 48.4858C20.62 48.4759 20.6256 48.4658 20.6311 48.4557L33.0299 25.7617C35.9892 20.3446 35.9044 13.9149 32.8026 8.5622ZM18 22.6562C14.1229 22.6562 10.9687 19.502 10.9687 15.625C10.9687 11.7479 14.1229 8.59374 18 8.59374C21.877 8.59374 25.0312 11.7479 25.0312 15.625C25.0312 19.502 21.8771 22.6562 18 22.6562Z" fill="#7FD9BD"/>
</svg>
