<svg width="40" height="40" viewBox="0 0 40 40" fill="none" xmlns="http://www.w3.org/2000/svg">
<g clip-path="url(#clip0)">
<path d="M38.8586 28.2658L30.1086 24.5158C29.7348 24.3565 29.3194 24.3229 28.9248 24.4202C28.5303 24.5174 28.178 24.7401 27.9211 25.0549L24.0461 29.7892C17.9646 26.9219 13.0705 22.0278 10.2031 15.9463L14.9375 12.0713C15.2529 11.8148 15.4761 11.4625 15.5734 11.0678C15.6706 10.6731 15.6366 10.2574 15.4766 9.88377L11.7266 1.13377C11.5509 0.730964 11.2402 0.402087 10.848 0.203847C10.4557 0.0056078 10.0066 -0.0495685 9.57812 0.0478329L1.45312 1.92284C1.03998 2.01823 0.671363 2.25087 0.407449 2.58274C0.143535 2.91462 -9.51727e-05 3.32616 4.73142e-08 3.75018C4.73142e-08 23.7892 16.2422 40.0002 36.25 40.0002C36.6741 40.0004 37.0859 39.8569 37.4179 39.593C37.7499 39.329 37.9827 38.9603 38.0781 38.5471L39.9531 30.4221C40.0499 29.9914 39.9935 29.5406 39.7937 29.147C39.594 28.7535 39.2633 28.4418 38.8586 28.2658Z" fill="#7FD9BD"/>
</g>
<defs>
<clipPath id="clip0">
<rect width="40" height="40" fill="white"/>
</clipPath>
</defs>
</svg>
