<svg width="512" height="512" viewBox="0 0 512 512" fill="none" xmlns="http://www.w3.org/2000/svg">
<circle cx="256" cy="256" r="250" fill="#7FD9BD"/>
<path d="M106 406.366L127.19 328.985C114.119 306.337 107.244 280.646 107.254 254.326C107.287 171.988 174.292 105 256.628 105C296.583 105.017 334.086 120.569 362.289 148.795C390.489 177.022 406.014 214.542 406 254.446C405.964 336.782 338.949 403.78 256.628 403.78C256.623 403.78 256.63 403.78 256.628 403.78H256.563C231.564 403.77 207.002 397.5 185.185 385.601L106 406.366ZM188.852 358.568L193.388 361.255C212.446 372.566 234.297 378.548 256.58 378.56H256.628C325.055 378.56 380.749 322.876 380.778 254.437C380.79 221.271 367.889 190.083 344.449 166.623C321.006 143.164 289.837 130.237 256.674 130.222C188.192 130.222 132.5 185.9 132.473 254.336C132.464 277.788 139.025 300.626 151.454 320.39L154.408 325.087L141.863 370.888L188.852 358.568Z" fill="white"/>
<path fill-rule="evenodd" clip-rule="evenodd" d="M219.295 191.899C216.5 185.684 213.556 185.559 210.895 185.451C208.719 185.357 206.229 185.362 203.743 185.362C201.256 185.362 197.211 186.298 193.792 190.033C190.37 193.767 180.726 202.796 180.726 221.16C180.726 239.526 194.102 257.271 195.968 259.763C197.833 262.254 221.788 301.143 259.723 316.103C291.252 328.538 297.666 326.065 304.51 325.443C311.354 324.821 326.591 316.413 329.701 307.698C332.814 298.984 332.814 291.515 331.879 289.952C330.945 288.398 328.457 287.464 324.726 285.598C320.994 283.732 302.644 274.7 299.222 273.456C295.8 272.21 293.312 271.59 290.824 275.327C288.334 279.059 281.187 287.464 279.009 289.952C276.831 292.447 274.653 292.759 270.921 290.891C267.189 289.02 255.168 285.082 240.908 272.366C229.813 262.475 222.321 250.256 220.143 246.519C217.967 242.788 220.107 240.943 221.783 238.904C224.802 235.233 229.866 228.631 231.11 226.143C232.354 223.65 231.732 221.472 230.8 219.604C229.866 217.738 222.612 199.281 219.295 191.899V191.899Z" fill="white"/>
</svg>
